<mxfile host="Electron" modified="2023-08-22T15:06:59.676Z" agent="Mozilla/5.0 (Windows NT 10.0; Win64; x64) AppleWebKit/537.36 (KHTML, like Gecko) draw.io/21.6.8 Chrome/114.0.5735.289 Electron/25.5.0 Safari/537.36" etag="TUloMSWsU_6eqbnewYsq" version="21.6.8" type="device">
  <diagram name="Page-1" id="yMmHk0eeKbtMR575qRB0">
    <mxGraphModel dx="1050" dy="621" grid="1" gridSize="10" guides="1" tooltips="1" connect="1" arrows="1" fold="1" page="1" pageScale="1" pageWidth="1100" pageHeight="850" math="0" shadow="0">
      <root>
        <mxCell id="0" />
        <mxCell id="1" parent="0" />
        <mxCell id="hp_8oim1M4eYQZEsA_b--5" value="" style="rounded=1;whiteSpace=wrap;html=1;fillColor=#fad9d5;strokeColor=#ae4132;rotation=90;" parent="1" vertex="1">
          <mxGeometry x="467.5" y="282.5" width="90" height="505" as="geometry" />
        </mxCell>
        <mxCell id="hp_8oim1M4eYQZEsA_b--1" value="Reward Function 1" style="rounded=1;whiteSpace=wrap;html=1;fontFamily=Comic Sans MS;fontSize=18;arcSize=26;strokeColor=#0000CC;strokeWidth=3;" parent="1" vertex="1">
          <mxGeometry x="280" y="510" width="120" height="50" as="geometry" />
        </mxCell>
        <mxCell id="hp_8oim1M4eYQZEsA_b--2" value="Reward Function 2" style="rounded=1;whiteSpace=wrap;html=1;fontFamily=Comic Sans MS;fontSize=18;arcSize=26;strokeColor=#0000CC;strokeWidth=3;" parent="1" vertex="1">
          <mxGeometry x="440" y="510" width="120" height="50" as="geometry" />
        </mxCell>
        <mxCell id="hp_8oim1M4eYQZEsA_b--3" value="Reward Function N" style="rounded=1;whiteSpace=wrap;html=1;fontFamily=Comic Sans MS;fontSize=18;arcSize=26;strokeColor=#0000CC;strokeWidth=3;" parent="1" vertex="1">
          <mxGeometry x="630" y="510" width="120" height="50" as="geometry" />
        </mxCell>
        <mxCell id="hp_8oim1M4eYQZEsA_b--4" value="" style="endArrow=none;dashed=1;html=1;dashPattern=1 3;strokeWidth=2;rounded=0;fontColor=#050505;strokeColor=#000000;" parent="1" edge="1">
          <mxGeometry width="50" height="50" relative="1" as="geometry">
            <mxPoint x="580" y="534.5" as="sourcePoint" />
            <mxPoint x="620" y="534.5" as="targetPoint" />
          </mxGeometry>
        </mxCell>
        <mxCell id="hp_8oim1M4eYQZEsA_b--6" value="All possible reward functions" style="text;html=1;align=center;verticalAlign=middle;whiteSpace=wrap;rounded=0;fontSize=18;fontColor=#FCFCFC;" parent="1" vertex="1">
          <mxGeometry x="267.5" y="590" width="490" height="30" as="geometry" />
        </mxCell>
        <mxCell id="hp_8oim1M4eYQZEsA_b--11" value="" style="group" parent="1" vertex="1" connectable="0">
          <mxGeometry x="267.5" y="140" width="487.5" height="95" as="geometry" />
        </mxCell>
        <mxCell id="hp_8oim1M4eYQZEsA_b--7" value="True Reward Function" style="rounded=1;whiteSpace=wrap;html=1;fontFamily=Comic Sans MS;fontSize=18;arcSize=26;strokeColor=#0000CC;strokeWidth=3;" parent="hp_8oim1M4eYQZEsA_b--11" vertex="1">
          <mxGeometry x="312.5" y="5" width="130" height="50" as="geometry" />
        </mxCell>
        <mxCell id="hp_8oim1M4eYQZEsA_b--8" value="Intended Behavior" style="rounded=0;whiteSpace=wrap;html=1;fontSize=18;" parent="hp_8oim1M4eYQZEsA_b--11" vertex="1">
          <mxGeometry width="170" height="60" as="geometry" />
        </mxCell>
        <mxCell id="hp_8oim1M4eYQZEsA_b--9" value="" style="shape=flexArrow;endArrow=classic;html=1;rounded=0;" parent="hp_8oim1M4eYQZEsA_b--11" edge="1">
          <mxGeometry width="50" height="50" relative="1" as="geometry">
            <mxPoint x="182.5" y="29.5" as="sourcePoint" />
            <mxPoint x="302.5" y="30" as="targetPoint" />
          </mxGeometry>
        </mxCell>
        <mxCell id="hp_8oim1M4eYQZEsA_b--10" value="(we are uncertain about it)" style="text;html=1;strokeColor=none;fillColor=none;align=center;verticalAlign=middle;whiteSpace=wrap;rounded=0;fontSize=18;" parent="hp_8oim1M4eYQZEsA_b--11" vertex="1">
          <mxGeometry x="267.5" y="65" width="220" height="30" as="geometry" />
        </mxCell>
        <mxCell id="hp_8oim1M4eYQZEsA_b--13" value="" style="endArrow=classic;html=1;rounded=0;strokeWidth=2;" parent="1" edge="1">
          <mxGeometry width="50" height="50" relative="1" as="geometry">
            <mxPoint x="250" y="480" as="sourcePoint" />
            <mxPoint x="250" y="270" as="targetPoint" />
          </mxGeometry>
        </mxCell>
        <mxCell id="hp_8oim1M4eYQZEsA_b--14" value="Probability that it is the true reward function" style="text;html=1;strokeColor=none;fillColor=none;align=center;verticalAlign=middle;whiteSpace=wrap;rounded=0;strokeWidth=1;fontSize=18;" parent="1" vertex="1">
          <mxGeometry x="50" y="366.63" width="190" height="30" as="geometry" />
        </mxCell>
        <mxCell id="hp_8oim1M4eYQZEsA_b--15" value="" style="rounded=0;whiteSpace=wrap;html=1;rotation=90;fillColor=#a20025;fontColor=#ffffff;strokeColor=#6F0000;" parent="1" vertex="1">
          <mxGeometry x="322.5" y="456.63" width="35" height="20" as="geometry" />
        </mxCell>
        <mxCell id="hp_8oim1M4eYQZEsA_b--16" value="" style="rounded=0;whiteSpace=wrap;html=1;rotation=90;fillColor=#a20025;fontColor=#ffffff;strokeColor=#6F0000;" parent="1" vertex="1">
          <mxGeometry x="392.5" y="366.63" width="215" height="20" as="geometry" />
        </mxCell>
        <mxCell id="hp_8oim1M4eYQZEsA_b--17" value="" style="rounded=0;whiteSpace=wrap;html=1;rotation=90;fillColor=#a20025;fontColor=#ffffff;strokeColor=#6F0000;" parent="1" vertex="1">
          <mxGeometry x="360" y="416.63" width="115" height="20" as="geometry" />
        </mxCell>
        <mxCell id="hp_8oim1M4eYQZEsA_b--18" value="" style="rounded=0;whiteSpace=wrap;html=1;rotation=90;fillColor=#a20025;fontColor=#ffffff;strokeColor=#6F0000;" parent="1" vertex="1">
          <mxGeometry x="513.75" y="392.88" width="157.5" height="20" as="geometry" />
        </mxCell>
        <mxCell id="hp_8oim1M4eYQZEsA_b--19" value="" style="rounded=0;whiteSpace=wrap;html=1;rotation=90;fillColor=#a20025;fontColor=#ffffff;strokeColor=#6F0000;" parent="1" vertex="1">
          <mxGeometry x="657.5" y="439.13" width="65" height="20" as="geometry" />
        </mxCell>
      </root>
    </mxGraphModel>
  </diagram>
</mxfile>
